<?xml version="1.0" encoding="UTF-8" standalone="no"?>
<svg
   xmlns:dc="http://purl.org/dc/elements/1.1/"
   xmlns:cc="http://creativecommons.org/ns#"
   xmlns:rdf="http://www.w3.org/1999/02/22-rdf-syntax-ns#"
   xmlns:svg="http://www.w3.org/2000/svg"
   xmlns="http://www.w3.org/2000/svg"
   viewBox="0 0 416.30667 142.48"
   height="142.48"
   width="416.30667"
   xml:space="preserve"
   id="svg2"
   version="1.1"><metadata
     id="metadata8"><rdf:RDF><cc:Work
         rdf:about=""><dc:format>image/svg+xml</dc:format><dc:type
           rdf:resource="http://purl.org/dc/dcmitype/StillImage" /></cc:Work></rdf:RDF></metadata><defs
     id="defs6" /><g
     transform="matrix(1.3333333,0,0,-1.3333333,0,142.48)"
     id="g10"><g
       transform="scale(0.1)"
       id="g12"><path
         id="path14"
         style="fill:#100f0d;fill-opacity:1;fill-rule:nonzero;stroke:none"
         d="m 1103.85,261.672 83.47,249.094 82.42,-249.094 z M 787.852,8.87891 H 1003.4 l 40.23,117.21909 h 285.29 L 1370.2,8.87891 h 212.2 L 1310.86,758.211 h -228.3 z M 3092.05,55.5 c 0,-3.6289 -2.53,-6.1602 -7.26,-6.1602 h -9.35 v 12.4297 h 9.13 c 4.62,0 7.48,-2.0898 7.48,-6.2695 z m 9.46,0.5508 c 0,8.8008 -6.48,13.9726 -16.61,13.9726 h -18.81 V 27.6719 h 9.35 v 13.6367 h 7.37 l 9.03,-13.6367 h 10.88 l -10.34,15.1797 c 5.39,1.9804 9.13,6.2695 9.13,13.1992 z m 16.17,-8.25 c 0,-19.5899 -15.17,-35.5313 -35.31,-35.5313 -20.02,0 -35.09,15.7305 -35.09,35.3086 0,19.5821 15.18,35.5391 35.32,35.5391 20.02,0 35.08,-15.7383 35.08,-35.3164 z m 4.62,0 c 0,21.7812 -17.38,39.7109 -39.7,39.7109 -22.34,0 -39.94,-18.1445 -39.94,-39.9336 0,-21.789 17.38,-39.71872 39.71,-39.71872 22.34,0 39.93,18.16012 39.93,39.94142 z M 1858.82,387.746 2139.38,8.87891 h 175.54 V 758.211 H 2112.3 V 350.676 L 1857.82,758.211 H 1663.83 V 8.87891 h 194.99 z M 0,1068.64 C 1.47266,1062.17 378.035,8.87891 378.035,8.87891 h 224.66 L 948.738,885.309 H 3097.97 l 16.32,183.331 H 783.563 L 496.387,341.938 237.832,1068.64 H 0 M 3050.33,546.371 h -180.59 c -17.52,44.348 -37.07,78.949 -138.32,78.949 -69.89,0 -99.66,-28.789 -99.66,-57.73 0,-31.563 24.87,-58.203 102.01,-75.301 l 163.59,-43.652 c 107.05,-28.614 159.04,-113.594 159.04,-203.391 0,-49.949 -10.8,-110.312 -58.22,-159.6757 C 2962.73,48.6797 2909.15,0 2731.42,0 c -244.38,0 -324.7,154.465 -324.7,247.836 h 190.29 c 18.7,-68.164 65.46,-94.113 158.15,-94.113 64.18,0 119.29,22.89 119.29,71.992 0,46.711 -39.9,64.277 -91.47,78.379 l -129.25,34.875 c -62.31,18.972 -114.41,34.148 -151.18,65.32 -96.31,81.582 -89.3,228.93 15.43,305.543 57.98,42.387 117.41,64.527 211.72,64.527 110.82,0 174.06,-31.636 223.94,-65.968 44.19,-30.411 96.69,-103.778 96.69,-162.02" /></g></g></svg>